# 3ds Max Wavefront OBJ Exporter v0.97b - (c)2007 guruware
# File Created: 03.01.2016 05:21:32

mtllib 3d-model.mtl

#
# object Layer0_001
#

v  10.8669 46.8669 0.1087
v  10.8669 1.1331 0.1087
v  10.8669 1.1331 0.0096
v  10.8669 46.8669 0.0096
v  10.8669 1.1331 -0.1275
v  10.8669 46.8669 -0.1275
v  -10.8669 1.1331 0.1087
v  -10.8669 46.8669 0.1087
v  -10.8669 46.8669 0.0096
v  -10.8669 1.1331 0.0096
v  -10.8669 46.8669 -0.1275
v  -10.8669 1.1331 -0.1275
v  -10.8669 1.1331 -0.3506
v  10.8669 1.1331 -0.3506
v  -10.8669 1.1331 0.3698
v  -10.8669 46.8669 0.3698
v  -10.8669 46.8669 -0.3506
v  10.8669 46.8669 -0.3506
v  10.8669 1.1331 0.3698
v  11.0000 1.1331 -0.3506
v  11.0000 1.1331 0.3698
v  11.0000 1.1331 0.0096
v  10.8669 46.8669 0.3698
v  -11.0000 1.0000 0.3698
v  -11.0000 47.0000 0.3698
v  11.0000 47.0000 0.3698
v  11.0000 1.0000 0.3698
v  11.0000 0.0000 -0.5000
v  12.0000 0.0000 -0.5000
v  12.0000 48.0000 -0.5000
v  11.0000 1.0000 -0.5000
v  11.0000 47.0000 -0.5000
v  -11.0000 47.0000 -0.5000
v  -12.0000 48.0000 -0.5000
v  -11.0000 1.0000 -0.5000
v  -12.0000 0.0000 -0.5000
v  -12.0000 0.0000 0.5000
v  11.0000 0.0000 0.5000
v  12.0000 0.0000 0.5000
v  -11.0000 1.0000 0.5000
v  -12.0000 48.0000 0.5000
v  -11.0000 47.0000 0.5000
v  11.0000 47.0000 0.5000
v  12.0000 48.0000 0.5000
v  11.0000 1.0000 0.5000
v  -11.0000 1.0000 -0.3506
v  11.0000 1.0000 -0.3506
v  11.0000 47.0000 -0.3506
v  -11.0000 47.0000 -0.3506
# 49 vertices

vn 1.0000 0.0000 0.0000
vn -0.0000 0.0000 1.0000
vn -1.0000 -0.0000 0.0000
vn -0.0000 -1.0000 0.0000
vn -0.0000 0.0000 -1.0000
vn 0.0000 1.0000 -0.0000
vn -0.0000 -1.0000 -0.0000
vn -1.0000 -0.0000 -0.0000
vn 1.0000 -0.0000 -0.0000
vn 0.0000 0.0000 -1.0000
vn 0.0000 0.0000 1.0000
# 11 vertex normals

vt 0.0000 0.0000 0.0000
# 1 texture coords

g Layer0_001
usemtl _Translucent_Glass_Gray_1
s off
f 1/1/1 2/1/1 3/1/1 4/1/1 
f 4/1/1 3/1/1 5/1/1 6/1/1 
f 7/1/2 2/1/2 1/1/2 8/1/2 
f 7/1/3 8/1/3 9/1/3 10/1/3 
f 10/1/3 9/1/3 11/1/3 12/1/3 
f 10/1/4 12/1/4 5/1/4 7/1/4 
f 7/1/4 5/1/4 3/1/4 2/1/4 
f 5/1/5 12/1/5 11/1/5 6/1/5 
f 11/1/6 9/1/6 8/1/6 6/1/6 
f 4/1/6 6/1/6 8/1/6 1/1/6 
usemtl Metal_Aluminum_Blurry
f 12/1/7 13/1/7 14/1/7 5/1/7 
f 15/1/8 16/1/8 8/1/8 7/1/8 
f 17/1/6 11/1/6 6/1/6 18/1/6 
f 6/1/9 5/1/9 14/1/9 18/1/9 
f 19/1/7 15/1/7 7/1/7 2/1/7 
f 5/1/7 14/1/7 20/1/7 21/1/7 
f 5/1/7 21/1/7 19/1/7 2/1/7 
f 5/1/7 2/1/7 3/1/7 
f 21/1/7 20/1/7 22/1/7 
f 23/1/9 19/1/9 2/1/9 1/1/9 
f 15/1/10 19/1/10 24/1/10 25/1/10 
f 16/1/10 15/1/10 25/1/10 23/1/10 
f 23/1/10 25/1/10 26/1/10 21/1/10 
f 19/1/10 23/1/10 21/1/10 24/1/10 
f 24/1/10 21/1/10 27/1/10 
f 28/1/11 29/1/11 30/1/11 31/1/11 
f 32/1/11 31/1/11 30/1/11 33/1/11 
f 33/1/11 30/1/11 34/1/11 35/1/11 
f 35/1/11 34/1/11 36/1/11 28/1/11 
f 35/1/11 28/1/11 31/1/11 
f 36/1/6 37/1/6 38/1/6 28/1/6 
f 28/1/6 38/1/6 39/1/6 29/1/6 
f 8/1/6 16/1/6 23/1/6 1/1/6 
f 40/1/10 38/1/10 37/1/10 41/1/10 
f 42/1/10 40/1/10 41/1/10 43/1/10 
f 43/1/10 41/1/10 44/1/10 45/1/10 
f 38/1/10 45/1/10 44/1/10 39/1/10 
f 38/1/10 40/1/10 45/1/10 
f 12/1/8 11/1/8 17/1/8 13/1/8 
f 40/1/7 24/1/7 27/1/7 45/1/7 
f 46/1/7 35/1/7 31/1/7 47/1/7 
f 43/1/9 45/1/9 27/1/9 26/1/9 
f 26/1/9 27/1/9 21/1/9 
f 39/1/8 44/1/8 30/1/8 29/1/8 
f 20/1/9 47/1/9 31/1/9 48/1/9 
f 48/1/9 31/1/9 32/1/9 
f 46/1/11 47/1/11 20/1/11 14/1/11 
f 46/1/11 14/1/11 13/1/11 49/1/11 
f 49/1/11 13/1/11 17/1/11 48/1/11 
f 48/1/11 17/1/11 18/1/11 20/1/11 
f 14/1/11 20/1/11 18/1/11 
f 33/1/6 49/1/6 48/1/6 32/1/6 
f 40/1/8 42/1/8 25/1/8 24/1/8 
f 41/1/9 37/1/9 36/1/9 34/1/9 
f 25/1/6 42/1/6 43/1/6 26/1/6 
f 46/1/8 49/1/8 33/1/8 35/1/8 
f 41/1/7 34/1/7 30/1/7 44/1/7 
# 49 polygons - 8 triangles

